<?xml version="1.0" encoding="UTF-8" standalone="no"?>
<!-- Created with Inkscape (http://www.inkscape.org/) -->

<svg
   width="210mm"
   height="297mm"
   viewBox="0 0 210 297"
   version="1.1"
   id="svg5"
   inkscape:version="1.1.2 (b8e25be8, 2022-02-05)"
   sodipodi:docname="logo.svg"
   xmlns:inkscape="http://www.inkscape.org/namespaces/inkscape"
   xmlns:sodipodi="http://sodipodi.sourceforge.net/DTD/sodipodi-0.dtd"
   xmlns="http://www.w3.org/2000/svg"
   xmlns:svg="http://www.w3.org/2000/svg">
  <sodipodi:namedview
     id="namedview7"
     pagecolor="#ffffff"
     bordercolor="#666666"
     borderopacity="1.0"
     inkscape:pageshadow="2"
     inkscape:pageopacity="0.0"
     inkscape:pagecheckerboard="0"
     inkscape:document-units="mm"
     showgrid="false"
     showguides="false"
     inkscape:zoom="0.55411055"
     inkscape:cx="40.605616"
     inkscape:cy="561.25984"
     inkscape:window-width="1512"
     inkscape:window-height="844"
     inkscape:window-x="0"
     inkscape:window-y="38"
     inkscape:window-maximized="0"
     inkscape:current-layer="layer1" />
  <defs
     id="defs2">
    <rect
       x="254.46186"
       y="252.65716"
       width="227.39145"
       height="232.80553"
       id="rect2856" />
  </defs>
  <g
     inkscape:label="Layer 1"
     inkscape:groupmode="layer"
     id="layer1">
    <circle
       style="fill:#ffffff;stroke:#000000;stroke-width:1.90996;stroke-miterlimit:4;stroke-dasharray:none;stroke-opacity:1"
       id="path916"
       cx="105.04823"
       cy="121.76045"
       rx="96.57798"
       ry="94.429268" />
    <text
       xml:space="preserve"
       transform="matrix(0.51105849,0,0,0.4996882,-59.58307,-58.596414)"
       id="text2854"
       style="font-style:normal;font-weight:normal;font-size:192px;line-height:1.25;font-family:sans-serif;white-space:pre;shape-inside:url(#rect2856);fill:#000000;fill-opacity:1;stroke:none"><tspan
         x="254.46094"
         y="427.82367"
         id="tspan964"><tspan
           style="font-family:'Bodoni 72 Oldstyle';-inkscape-font-specification:'Bodoni 72 Oldstyle'"
           id="tspan962">K</tspan></tspan></text>
    <path
       style="fill:#ffffff;stroke:#000000;stroke-width:6.82089"
       d="M 362.7435,810.90912 C 276.12957,802.75093 192.70025,762.3338 133.62598,699.91367 106.05007,670.77589 86.224538,642.00795 69.859188,607.3845 8.4360982,477.43435 33.759433,324.896 134.20617,219.78217 207.86833,142.69743 316.92389,100.63754 421.7462,108.88547 c 93.6267,7.36701 176.89577,46.29731 238.69318,111.59482 46.30311,48.92563 75.87113,104.87359 89.546,169.43701 26.65632,125.85288 -21.06894,258.61865 -122.45145,340.64488 -74.54359,60.31146 -169.99722,89.27552 -264.79043,80.34694 z m 10.82816,-226.88036 c 0,-2.85208 -1.89058,-3.60161 -11.747,-4.65715 -6.46086,-0.69189 -12.95776,-2.46873 -14.43755,-3.94853 -2.27249,-2.27249 -2.67916,-11.43353 -2.61721,-58.95832 l 0.0733,-56.26778 4.88957,5.5992 c 2.68926,3.07955 18.79683,21.35208 35.79457,40.60562 40.09306,45.41381 56.54579,65.15759 56.58831,67.90769 0.0377,2.44329 -3.59397,3.62242 -17.11391,5.55635 -6.48421,0.92752 -9.14713,2.16347 -9.58744,4.44982 -0.57194,2.96986 2.77414,3.13603 54.11981,2.68775 47.23298,-0.41239 54.72953,-0.84864 54.72953,-3.18489 0,-1.92788 -3.37634,-3.27036 -11.73051,-4.66418 -6.45178,-1.07643 -13.40617,-2.50423 -15.4542,-3.1729 -2.04804,-0.66868 -19.58267,-19.68472 -38.96582,-42.25787 -19.38317,-22.57315 -46.67069,-53.28679 -60.63895,-68.25254 L 372.0773,438.26061 417.49066,392.8823 c 24.97735,-24.95807 46.07254,-45.99241 46.87823,-46.74298 0.80567,-0.75057 8.52073,-1.78829 17.14459,-2.30605 14.16279,-0.85032 15.67972,-1.2906 15.67972,-4.55079 0,-3.48398 -1.36528,-3.6263 -39.29519,-4.09588 -34.25861,-0.42414 -39.43388,-0.12507 -40.37737,2.3337 -1.61955,4.22048 -0.12056,4.85892 13.7368,5.8504 7.64561,0.54704 12.69729,1.71443 12.69729,2.93418 0,1.11411 -22.33309,24.34769 -49.62909,51.63015 l -49.62908,49.60447 v -49.84696 c 0,-37.72208 0.54872,-50.28136 2.25587,-51.63271 1.24072,-0.98216 7.39572,-2.22859 13.67777,-2.76981 12.62555,-1.08778 13.87805,-1.67083 12.3187,-5.7344 -0.92602,-2.41322 -7.45882,-2.78488 -48.94969,-2.78488 -45.61388,0 -47.88102,0.16022 -47.88102,3.3838 0,3.55161 6.14108,5.63967 16.58647,5.63967 2.91893,0 6.87798,0.84068 8.79788,1.86819 3.39424,1.81655 3.48999,4.9724 3.46312,114.14689 -0.0144,61.75329 -0.73476,113.39506 -1.59903,114.75949 -0.86425,1.36442 -7.13787,3.3947 -13.94135,4.51173 -9.35209,1.53547 -12.51657,2.80146 -12.97086,5.18918 -0.56029,2.94485 2.69995,3.15822 48.25818,3.15822 46.6486,0 48.85906,-0.15378 48.85906,-3.39915 z"
       id="path913"
       transform="scale(0.26458333)" />
  </g>
</svg>
